<svg width="32" height="32" viewBox="0 0 32 32" fill="none" xmlns="http://www.w3.org/2000/svg">
  <!-- Background -->
  <rect width="32" height="32" fill="#0a0a0a"/>
  
  <!-- Glow effect -->
  <defs>
    <filter id="glow">
      <feGaussianBlur stdDeviation="1" result="coloredBlur"/>
      <feMerge>
        <feMergeNode in="coloredBlur"/>
        <feMergeNode in="SourceGraphic"/>
      </feMerge>
    </filter>
  </defs>
  
  <!-- 3 -->
  <path d="M8 8 L14 8 L14 10 L10 10 L10 14 L14 14 L14 16 L10 16 L10 20 L14 20 L14 22 L8 22 L8 20 L12 20 L12 16 L8 16 L8 14 L12 14 L12 10 L8 10 Z" fill="#CCFF00" filter="url(#glow)"/>
  
  <!-- W -->
  <path d="M16 8 L18 8 L19 18 L20 8 L22 8 L23 18 L24 8 L26 8 L24 22 L22 22 L21 12 L20 22 L18 22 Z" fill="#CCFF00" filter="url(#glow)"/>
  
  <!-- Grid lines -->
  <line x1="0" y1="16" x2="32" y2="16" stroke="#CCFF00" stroke-width="0.5" opacity="0.3"/>
  <line x1="16" y1="0" x2="16" y2="32" stroke="#CCFF00" stroke-width="0.5" opacity="0.3"/>
  
  <!-- Corner accents -->
  <rect x="1" y="1" width="4" height="1" fill="#FF003C" opacity="0.8"/>
  <rect x="1" y="1" width="1" height="4" fill="#FF003C" opacity="0.8"/>
  <rect x="27" y="30" width="4" height="1" fill="#FF003C" opacity="0.8"/>
  <rect x="30" y="27" width="1" height="4" fill="#FF003C" opacity="0.8"/>
</svg>
