<?xml version="1.0" encoding="utf-8"?>
<!-- Generator: Adobe Illustrator 28.2.0, SVG Export Plug-In . SVG Version: 6.00 Build 0)  -->
<svg version="1.1" id="Layer_1" xmlns="http://www.w3.org/2000/svg" xmlns:xlink="http://www.w3.org/1999/xlink" x="0px" y="0px"
	 viewBox="0 0 159 50" style="enable-background:new 0 0 159 50;" xml:space="preserve">
<style type="text/css">
	.st0{fill:#0097DC;}
	.st1{fill:#8FDCFF;}
	.st2{fill:#282526;}
</style>
<path class="st0" d="M11,12.7c0.8,0,1.5,0.7,1.5,1.5v10.3c0,0.8-0.7,1.5-1.5,1.5c-0.8,0-1.5-0.7-1.5-1.5V14.2
	C9.5,13.4,10.1,12.7,11,12.7z"/>
<path class="st0" d="M12.4,30c0-0.8-0.7-1.5-1.5-1.5c-0.8,0-1.5,0.7-1.5,1.5v4.4c0,0.6,0.2,1.1,0.7,1.4c0.7,0.4,1.4,0.6,2.2,0.6V30z
	"/>
<path class="st0" d="M16.4,26c-0.7-0.4-1.6-0.2-2,0.5c-0.4,0.7-0.2,1.6,0.5,2l3.8,2.2c0.5,0.3,1.1,0.4,1.6,0.1
	c0.7-0.4,1.2-0.9,1.6-1.6L16.4,26z"/>
<path class="st0" d="M14.9,20.6c-0.7,0.4-0.9,1.3-0.5,2c0.4,0.7,1.3,0.9,2,0.5l3.8-2.2c0.5-0.3,0.9-0.8,0.9-1.3
	c0-0.8-0.2-1.5-0.6-2.2L14.9,20.6z"/>
<path class="st1" d="M5.5,23.1c0.7,0.4,1.6,0.2,2-0.5C8,21.9,7.7,21,7,20.6l-4-2.3c-0.4-0.2-0.8-0.3-1.2-0.1c-0.7,0.4-1.4,1-1.8,1.7
	L5.5,23.1z"/>
<path class="st1" d="M7,28.5c0.7-0.4,0.9-1.3,0.5-2c-0.4-0.7-1.3-0.9-2-0.5l-3.8,2.2c-0.5,0.3-0.9,0.8-0.9,1.3
	c0,0.8,0.2,1.5,0.6,2.2L7,28.5z"/>
<path class="st0" d="M150.4,17.2h7.5v2.6h-7.6c-1.3,0-1.9,0.7-1.9,1.7c0,0.9,0.5,1.7,2.2,1.7h3.5c4,0,5,2.2,5,4.4
	c0,2.5-1.3,4.3-4.7,4.3h-8.2v-2.6h8.3c1.4,0,2-0.8,2-1.8c0-1-0.5-1.8-2.3-1.8h-3.4c-3.9,0-4.9-2.2-4.9-4.3
	C145.8,19,147.1,17.2,150.4,17.2z"/>
<path class="st0" d="M135,16.9h2.1c4.4,0,6.9,2.5,6.9,7.6c0,5.1-2.4,7.6-6.9,7.6H135c-4.4,0-6.9-2.5-6.9-7.6
	C128.1,19.5,130.6,16.9,135,16.9z M137.1,19.5H135c-2.9,0-4.3,1.6-4.3,5.1c0,3.5,1.4,5,4.3,5h2.1c2.9,0,4.3-1.6,4.3-5.1
	C141.4,21.1,140,19.5,137.1,19.5z"/>
<path class="st2" d="M119.8,20.4h5.9v2.2H120c-2,0-2.9,1-2.9,3.5s0.9,3.5,2.9,3.5h5.7v2.3h-5.9c-3.1,0-5-1.9-5-5.8
	C114.8,22.3,116.7,20.4,119.8,20.4z"/>
<path class="st2" d="M110,20.4h2.3v11.5H110V20.4z M110,16h2.3v2.7H110V16z"/>
<path class="st2" d="M100.6,20.4h1.6v-2.7h2.3v2.7h3.2v2.2h-3.2v5.5c0,1.3,0.5,1.7,1.6,1.7h1.6v2.1h-2.1c-2.4,0-3.4-1-3.4-4v-5.3
	h-1.6V20.4z"/>
<path class="st2" d="M91,20.4h3.7c2.7,0,3.9,1.3,3.9,3.5c0,2.1-1.1,3.3-3.9,3.3h-5.5v0.8c0,0.9,0.5,1.6,1.8,1.6h7.1v2.3H91
	c-2.9,0-4-1.6-4-3.8v-3.9C87,22,88.1,20.4,91,20.4z M89.2,24.2v1.2h5.4c1.2,0,1.7-0.5,1.7-1.4c0-0.9-0.5-1.4-1.6-1.4H91
	C89.7,22.6,89.2,23.3,89.2,24.2z"/>
<path class="st2" d="M73.4,20.4h4.8c3.9,0,5.8,1.9,5.8,5.1v6.5h-2.3v-6.5c0-1.8-1-2.8-3.5-2.8h-3.8c-0.2,0-0.3,0.1-0.3,0.3v9h-2.3
	v-9.8C71.7,20.8,72.2,20.4,73.4,20.4z"/>
<path class="st2" d="M61.3,20.4H65c2.7,0,3.9,1.3,3.9,3.5c0,2.1-1.1,3.3-3.9,3.3h-5.5v0.8c0,0.9,0.5,1.6,1.8,1.6h7.1v2.3h-7.1
	c-2.9,0-4-1.6-4-3.8v-3.9C57.2,22,58.4,20.4,61.3,20.4z M59.5,24.2v1.2h5.4c1.2,0,1.7-0.5,1.7-1.4c0-0.9-0.5-1.4-1.6-1.4h-3.7
	C60,22.6,59.5,23.3,59.5,24.2z"/>
<path class="st2" d="M47,20.4h3.7c2.7,0,3.9,1.3,3.9,3.5c0,2.1-1.1,3.3-3.9,3.3h-5.5v0.8c0,0.9,0.5,1.6,1.8,1.6h7.1v2.3H47
	c-2.9,0-4-1.6-4-3.8v-3.9C43,22,44.1,20.4,47,20.4z M45.2,24.2v1.2h5.4c1.2,0,1.7-0.5,1.7-1.4c0-0.9-0.5-1.4-1.6-1.4H47
	C45.7,22.6,45.2,23.3,45.2,24.2z"/>
<path class="st2" d="M28.7,17.2h2.6v6.3h1.4c2.5,0,3-0.2,3.8-1.8l2.3-4.4h2.8l-2.3,4.6c-0.7,1.3-1.4,2.2-2.6,2.7
	c1.4,0.4,2.1,1.1,2.9,2.8l2.4,4.6H39l-2.3-4.4c-0.8-1.6-1.3-1.8-4.1-1.8h-1.4v6.2h-2.6V17.2z"/>
</svg>
