<?xml version="1.0" encoding="UTF-8"?>
<svg id="_Слой_1" data-name="Слой_1" xmlns="http://www.w3.org/2000/svg" version="1.1" viewBox="0 0 1874.5 333.14">
  <!-- Generator: Adobe Illustrator 30.0.0, SVG Export Plug-In . SVG Version: 2.1.1 Build 123)  -->
  <defs>
    <style>
      .st0 {
        fill: #88171a;
      }
    </style>
  </defs>
  <path class="st0" d="M1029.74,162.13s6.94-145.56-153.04-145.56c-141.48,0-145.9,139.63-145.9,139.63,0,0-20.81,160.37,149.16,160.37s149.78-154.44,149.78-154.44h0ZM831.94,111.27c30.02-18.36,68.37-7.14,82.74,20.48,2.72,5.23,3.07,13.29,1.34,18.78-5.95,18.96-20.01,29.59-39.31,34.1,5.69-4.87,10.22-10.39,11.66-18.02,1.52-7.31-.13-14.93-4.54-20.96-7.03-9.65-19.6-13.48-30.81-9.39-11.88,4.51-18.39,15.35-17.22,28.68,1.09,12.38,10.48,20.4,28.06,23.45-2.63,1.39-4.65,2.41-6.63,3.52-8.05,4.41-15.06,10.51-20.54,17.87-1.78,2.41-3.01,2.6-5.73.94-35.34-21.61-37.61-75.84.98-99.45h0ZM805.49,244.8c-5.68,1.44-11.18,3.57-16.98,5.48,2.84-19.15,25.26-36.79,44.23-34.78-5.49,7.57-8.7,16.56-9.24,25.89-6.3,1.16-12.24,1.94-18.01,3.4h0ZM926.28,57.82c5.61.21,11.23.12,16.84.25,1.4.09,2.79.29,4.17.58-1.26,1.93-2.67,3.75-4.24,5.43-2.01,1.87-4.27,3.7-7.17.86-.7-.68-2.34-.53-3.55-.54-5.58-.07-11.17-.25-16.75-.04-4.84.15-9.66.65-14.43,1.47-.89.16-2.23,3.13-1.82,4.23.97,2.59,2.38,5.44,4.48,7.09,7.74,6.11,15.97,11.6,23.75,17.66,7.56,5.9,14.59,12.36,18.88,21.25,5.58,11.59,5.75,23.74,3.34,35.95-4.02,20.38-14.33,37.26-31.03,49.52-6.73,4.94-15.06,7.75-22.77,11.29-6.78,3.12-13.76,5.81-20.55,8.9-12.25,5.57-19.13,18.87-17.11,32.69,1.86,12.68,12.99,23.27,25.74,25.46,15.29,2.62,31.07-7.32,34.81-22.86,4.21-17.48-5.29-33.08-23.07-37.81-.78-.21-1.57-.41-3.2-.83,4.75-2.12,8.86-3.64,12.65-5.72,6.61-3.64,13.11-7.49,19.48-11.56,1.87-1.2,2.89-1.2,4.49.18,12.23,10.57,19.52,23.72,21.56,39.84,3.38,26.68-9.25,51.2-33.07,63.76-36.86,19.44-81.96-2.69-90.11-43.55-6.97-35,17.73-66.75,47.46-72.88,12.79-2.64,24.48-7.96,33.57-17.81,5.87-6.35,8.71-11.81,9.68-14.27,1.8-4.61,2.73-9.52,2.72-14.47-.19-4.28-1.2-8.49-2.97-12.4-3.1-7.07-14.99-18.33-17.94-20.7l-28-21.92c-.99-.81-2.1-.75-4.51-.59-2.86.19-10.18.6-13.33-.23,2.55-1.93,9.51-4.75,12.5-7.01-9.07-6.13-19.43-3.92-28.94-5.75,2.2-4.1,13.08-10.39,19.27-11.09-.37-3.46-.93-6.89-1.69-10.28-.38-1.39-1.93-2.74-3.29-3.54-3.29-1.93-6.77-3.52-10.55-5.43,3.38-2.19,7.3-3.4,11.33-3.51,3.82-.15,7.63.23,11.35,1.11,6.74,1.54,12.12.53,17.49-4.05-4.22-1.7-8.44-3.25-12.54-5.09-4.03-1.84-7.97-3.89-11.78-6.16,10.62,1.48,20.9,5.46,31.76,4,.09-.49.18-.99.28-1.48-8.12-1.89-16.24-3.78-25.23-5.87,15.04-1.38,29.04-1.6,42.3,4.85,3.73,1.82,7.63,3.32,11.21,5.4,1.74,1.01,2.92,3.01,4.35,4.56,1.14,1.23,2.05,2.88,3.45,3.63,5.3,2.82,11.13,2.93,17.08,2.79.04-.68.09-1.31.13-1.99,5.98,1.87,12.71,8.77,12.7,13.81-9.69,0-19.37-.04-29.06.05-1.03,0-2.06.77-3.09,1.18.98.57,1.94,1.6,2.94,1.64h0Z"/>
  <path class="st0" d="M913.78,43.48c-.69.43-.9,1.35-.47,2.04.08.12.17.23.28.33.61,1.07,1.97,1.45,3.04.84,0,0,.02-.01.03-.02.93-.47,1.85-.97,2.98-1.57-.91-.77-1.64-1.41-2.39-2.03-1.32-1.09-2.41-.4-3.47.41h0Z"/>
</svg>